<svg width="24" height="24" viewBox="0 0 24 24" fill="none" xmlns="http://www.w3.org/2000/svg">
<g clip-path="url(#clip0_419_1913)">
<path d="M17.3716 7.93671C17.2612 7.63751 17.085 7.3667 16.8561 7.14441C16.6339 6.91553 16.3632 6.73938 16.0638 6.62897C15.821 6.53467 15.4563 6.42242 14.7845 6.39185C14.0577 6.3587 13.8398 6.35156 12 6.35156C10.16 6.35156 9.94208 6.35852 9.21552 6.39166C8.5437 6.42242 8.17877 6.53467 7.93616 6.62897C7.63678 6.73938 7.36597 6.91553 7.14386 7.14441C6.91498 7.3667 6.73883 7.63733 6.62823 7.93671C6.53394 8.1795 6.42169 8.54443 6.39111 9.21625C6.35797 9.94281 6.35083 10.1607 6.35083 12.0007C6.35083 13.8406 6.35797 14.0585 6.39111 14.7852C6.42169 15.457 6.53394 15.8218 6.62823 16.0646C6.73883 16.364 6.91479 16.6346 7.14368 16.8569C7.36597 17.0858 7.6366 17.2619 7.93597 17.3723C8.17877 17.4668 8.5437 17.579 9.21552 17.6096C9.94208 17.6428 10.1598 17.6497 11.9998 17.6497C13.84 17.6497 14.0579 17.6428 14.7843 17.6096C15.4561 17.579 15.821 17.4668 16.0638 17.3723C16.6648 17.1405 17.1398 16.6655 17.3716 16.0646C17.4659 15.8218 17.5781 15.457 17.6089 14.7852C17.642 14.0585 17.649 13.8406 17.649 12.0007C17.649 10.1607 17.642 9.94281 17.6089 9.21625C17.5783 8.54443 17.4661 8.1795 17.3716 7.93671ZM12 15.5389C10.0457 15.5389 8.46149 13.9548 8.46149 12.0005C8.46149 10.0463 10.0457 8.46222 12 8.46222C13.9541 8.46222 15.5383 10.0463 15.5383 12.0005C15.5383 13.9548 13.9541 15.5389 12 15.5389ZM15.6782 9.14923C15.2216 9.14923 14.8513 8.77899 14.8513 8.32233C14.8513 7.86566 15.2216 7.49542 15.6782 7.49542C16.1349 7.49542 16.5051 7.86566 16.5051 8.32233C16.5049 8.77899 16.1349 9.14923 15.6782 9.14923Z" fill="#393939"/>
<path d="M14.2969 12C14.2969 13.2686 13.2686 14.2969 12 14.2969C10.7314 14.2969 9.70312 13.2686 9.70312 12C9.70312 10.7314 10.7314 9.70312 12 9.70312C13.2686 9.70312 14.2969 10.7314 14.2969 12Z" fill="#393939"/>
<path d="M22.2691 0H1.7309C0.774902 0 0 0.774902 0 1.7309V22.2691C0 23.2251 0.774902 24 1.7309 24H22.2691C23.2251 24 24 23.2251 24 22.2691V1.7309C24 0.774902 23.2251 0 22.2691 0V0ZM18.8491 14.8409C18.8157 15.5744 18.6991 16.0752 18.5288 16.5135C18.1708 17.4391 17.4391 18.1708 16.5135 18.5288C16.0754 18.6991 15.5744 18.8156 14.8411 18.8491C14.1063 18.8826 13.8715 18.8906 12.0002 18.8906C10.1287 18.8906 9.8941 18.8826 9.15912 18.8491C8.42578 18.8156 7.9248 18.6991 7.48663 18.5288C7.02667 18.3558 6.61029 18.0846 6.26605 17.7339C5.91559 17.3899 5.64441 16.9733 5.47137 16.5135C5.30109 16.0754 5.18445 15.5744 5.15112 14.8411C5.11725 14.1061 5.10938 13.8713 5.10938 12C5.10938 10.1287 5.11725 9.89392 5.15094 9.15912C5.18427 8.4256 5.30072 7.9248 5.47101 7.48645C5.64404 7.02667 5.91541 6.61011 6.26605 6.26605C6.61011 5.91541 7.02667 5.64423 7.48645 5.47119C7.9248 5.3009 8.4256 5.18445 9.15912 5.15094C9.89392 5.11743 10.1287 5.10938 12 5.10938C13.8713 5.10938 14.1061 5.11743 14.8409 5.15112C15.5744 5.18445 16.0752 5.3009 16.5135 5.47101C16.9733 5.64404 17.3899 5.91541 17.7341 6.26605C18.0846 6.61029 18.356 7.02667 18.5288 7.48645C18.6993 7.9248 18.8157 8.4256 18.8492 9.15912C18.8828 9.89392 18.8906 10.1287 18.8906 12C18.8906 13.8713 18.8828 14.1061 18.8491 14.8409Z" fill="#393939"/>
</g>
<defs>
<clipPath id="clip0_419_1913">
<rect width="24" height="24" fill="white"/>
</clipPath>
</defs>
</svg>
