<svg width="24" height="24" viewBox="0 0 24 24" fill="none" xmlns="http://www.w3.org/2000/svg">
<g clip-path="url(#clip0_419_1912)">
<path d="M22.4707 0H1.53271C0.685908 0 0 0.685908 0 1.53101V22.469C0 23.3141 0.685908 24 1.53271 24H22.469C23.3141 24 24 23.3141 24 22.469V1.53101C24.0017 0.684214 23.3158 0 22.4707 0ZM19.9083 14.6242C20.3469 15.0713 21.2987 15.8216 21.126 16.5854C20.9668 17.2866 19.9201 17.0308 18.904 17.0715C17.7438 17.1206 17.0562 17.146 16.3585 16.5854C16.0299 16.3195 15.8369 16.0045 15.5218 15.6522C15.2356 15.3339 14.8749 14.7631 14.3837 14.7851C13.5014 14.8292 13.7774 16.0587 13.4641 16.897C8.55945 17.6693 6.5898 14.6395 4.85216 11.6994C4.01044 10.2751 2.79444 7.21643 2.79444 7.21643L6.26293 7.20457C6.26293 7.20457 7.37563 9.22843 7.67031 9.75005C7.92097 10.1938 8.19702 10.546 8.48155 10.9423C8.72034 11.2709 9.09802 11.9145 9.51126 11.862C10.1836 11.7756 10.3056 9.16745 9.88893 8.29356C9.72296 7.9396 9.32496 7.81596 8.91341 7.69572C9.05229 6.81843 12.8036 6.63552 13.4099 7.31635C14.2906 8.30541 12.8002 11.0592 14.0061 11.862C15.6997 10.9745 17.146 7.25877 17.146 7.25877L21.2073 7.28417C21.2073 7.28417 20.5722 9.29278 19.9066 10.1836C19.5187 10.7052 18.2316 11.8671 18.2824 12.7291C18.3231 13.4116 19.3697 14.0755 19.9083 14.6242Z" fill="#393939"/>
</g>
<defs>
<clipPath id="clip0_419_1912">
<rect width="24" height="24" fill="white"/>
</clipPath>
</defs>
</svg>
