<svg width="16" height="16" viewBox="0 0 16 16" fill="none" xmlns="http://www.w3.org/2000/svg">
<path d="M2.17586 14.7309C2.17586 14.7309 2.16165 15.0885 2.51102 15.0885C2.94566 15.0885 6.54418 15.0838 6.54418 15.0838L6.5501 11.779C6.5501 11.779 6.49326 11.2342 7.02205 11.2342H8.69548C9.32079 11.2342 9.2823 11.779 9.2823 11.779L9.2752 15.0731C9.2752 15.0731 12.6872 15.0731 13.2231 15.0731C13.6666 15.0731 13.6465 14.6278 13.6465 14.6278V8.53516L8.0826 3.58594L2.17586 8.53516V14.7309Z" fill="#CDA177"/>
<path d="M0 8.07421C0 8.07421 0.501554 8.99856 1.59526 8.07421L8.13146 2.54468L14.2597 8.03987C15.5257 8.95297 16 8.03987 16 8.03987L8.13146 0.912109L0 8.07421Z" fill="#CDA177"/>
<path d="M14.1115 2.53125H12.5352L12.5417 4.44272L14.1115 5.77448V2.53125Z" fill="#CDA177"/>
</svg>
