<svg width="16" height="16" viewBox="0 0 16 16" fill="none" xmlns="http://www.w3.org/2000/svg">
<g clip-path="url(#clip0_615_2140)">
<path d="M1.53568 5.58983C1.73808 5.73265 2.34818 6.15684 3.36602 6.86216C4.38389 7.56749 5.16365 8.11057 5.70532 8.49145C5.76484 8.53319 5.89127 8.62395 6.08469 8.76383C6.27815 8.90381 6.43889 9.01692 6.5668 9.1032C6.6948 9.18945 6.84953 9.28621 7.03117 9.39332C7.21274 9.50034 7.38389 9.58083 7.5446 9.63412C7.70535 9.68785 7.85414 9.71446 7.99102 9.71446H8H8.00901C8.14589 9.71446 8.29475 9.68782 8.45549 9.63412C8.61614 9.58083 8.78745 9.50024 8.96886 9.39332C9.15037 9.28609 9.30511 9.18942 9.43311 9.1032C9.56111 9.01692 9.72173 8.90381 9.91524 8.76383C10.1086 8.62382 10.2352 8.53319 10.2947 8.49145C10.8423 8.11057 12.2352 7.14327 14.4733 5.58964C14.9078 5.2862 15.2708 4.92006 15.5624 4.49146C15.8542 4.06306 16 3.61364 16 3.14345C16 2.75054 15.8586 2.4142 15.5758 2.13446C15.293 1.85466 14.9582 1.71484 14.5714 1.71484H1.42851C0.970209 1.71484 0.617514 1.86958 0.370489 2.17906C0.123496 2.4886 0 2.8755 0 3.33975C0 3.71474 0.163745 4.1211 0.491077 4.55858C0.818379 4.99608 1.1667 5.33986 1.53568 5.58983Z" fill="#CDA177"/>
<path d="M15.107 6.54531C13.1548 7.86662 11.6725 8.89349 10.6607 9.62571C10.3215 9.87561 10.0462 10.0707 9.83486 10.2105C9.62348 10.3504 9.34237 10.4932 8.99112 10.639C8.63999 10.785 8.31275 10.8577 8.00912 10.8577H8.00002H7.99104C7.68748 10.8577 7.36005 10.785 7.00892 10.639C6.65779 10.4932 6.37649 10.3504 6.16518 10.2105C5.95393 10.0707 5.67861 9.87561 5.33936 9.62571C4.53574 9.03647 3.0566 8.00953 0.901876 6.54531C0.562504 6.31927 0.26191 6.06017 0 5.76855V12.8576C0 13.2507 0.139821 13.5869 0.419618 13.8666C0.699354 14.1465 1.03572 14.2864 1.4286 14.2864H14.5715C14.9643 14.2864 15.3006 14.1465 15.5804 13.8666C15.8602 13.5868 16 13.2508 16 12.8576V5.76855C15.744 6.05414 15.4465 6.31323 15.107 6.54531Z" fill="#CDA177"/>
</g>
<defs>
<clipPath id="clip0_615_2140">
<rect width="16" height="16" fill="white"/>
</clipPath>
</defs>
</svg>
