<svg width="17" height="16" viewBox="0 0 17 16" fill="none" xmlns="http://www.w3.org/2000/svg">
<g clip-path="url(#clip0_2286_123)">
<path d="M7.57724 9.37484C6.05007 7.84766 5.70524 6.32049 5.62745 5.70863C5.60571 5.53945 5.66393 5.36978 5.78497 5.24959L7.02083 4.01428C7.20263 3.8326 7.23489 3.54945 7.09862 3.33153L5.1309 0.276077C4.98014 0.0347661 4.67061 -0.0523254 4.41614 0.0749733L1.25724 1.5627C1.05147 1.66402 0.930432 1.88266 0.953795 2.11084C1.11931 3.68325 1.80483 7.54863 5.60345 11.3475C9.40207 15.1464 13.2669 15.8317 14.8401 15.9972C15.0683 16.0205 15.287 15.8995 15.3883 15.6937L16.876 12.5348C17.0028 12.2809 16.9163 11.9722 16.676 11.8212L13.6206 9.85401C13.4028 9.7176 13.1196 9.74963 12.9378 9.93125L11.7025 11.1671C11.5823 11.2881 11.4126 11.3464 11.2434 11.3246C10.6316 11.2468 9.10441 10.902 7.57724 9.37484Z" fill="#CDA177"/>
<path d="M13.6415 8.55189C13.3368 8.55189 13.0898 8.30488 13.0898 8.00017C13.0872 5.71592 11.2361 3.86482 8.95187 3.86224C8.64716 3.86224 8.40015 3.61522 8.40015 3.31051C8.40015 3.0058 8.64716 2.75879 8.95187 2.75879C11.8453 2.76198 14.1901 5.10676 14.1933 8.00017C14.1933 8.30488 13.9462 8.55189 13.6415 8.55189Z" fill="#CDA177"/>
<path d="M16.4001 8.55172C16.0954 8.55172 15.8484 8.30471 15.8484 8C15.8442 4.1929 12.759 1.10771 8.95187 1.10345C8.64716 1.10345 8.40015 0.856433 8.40015 0.551724C8.40015 0.247015 8.64716 0 8.95187 0C13.3681 0.00486507 16.947 3.58374 16.9519 8C16.9519 8.14633 16.8937 8.28666 16.7903 8.39013C16.6868 8.4936 16.5465 8.55172 16.4001 8.55172Z" fill="#CDA177"/>
</g>
<defs>
<clipPath id="clip0_2286_123">
<rect width="16" height="16" fill="white" transform="translate(0.951904)"/>
</clipPath>
</defs>
</svg>
